<svg xmlns="http://www.w3.org/2000/svg" xmlns:xlink="http://www.w3.org/1999/xlink" xmlns:sketch="http://www.bohemiancoding.com/sketch/ns" width="75" height="86" version="1.1"><rect id="backgroundrect" width="100%" height="100%" x="0" y="0" fill="none" stroke="none"/>
    <!-- Generator: Sketch 3.4 (15588) - http://www.bohemiancoding.com/sketch -->
    <title>rose-right</title>
    <desc>Created with Sketch.</desc>
    <defs/>
    
<g class="currentLayer" style=""><title>Layer 1</title><g id="Page-1" stroke="none" stroke-width="1" fill="#367d90" fill-rule="evenodd" sketch:type="MSPage" class="" fill-opacity="1">
        <path d="M38.6397436,1.03518519 C38.0179487,2.36977778 38.0192308,4.40638519 38.2070513,5.83971852 C36.0423077,4.71471111 35.5294872,2.58891852 33.3448718,1.47665185 C32.5448718,2.20542222 33.8602564,3.05777778 33.7115385,4.0197037 C31.5089744,3.11447407 31.0365385,1.16195556 29.2589744,0 C28.683974399999997,1.88626667 29.330128199999997,4.68031111 29.5974359,6.70863704 C28.901923099999998,6.72838519 27.954487200000003,5.20714074 27.426923100000003,4.4675407400000005 C23.453205099999998,11.351363 29.973076900000002,18.0491704 38.1762821,18.1052296 C39.6532051,21.1610963 40.8294872,24.3997926 40.8666667,28.3271259 C39.3608974,27.6117333 39.0429487,25.2559704 37.0512821,23.7251704 C36.3820513,23.2110815 35.3910256,23.1206222 34.5987179,22.6422074 C33.1307692,21.757363 31.218589700000003,19.8354222 28.2935897,20.140563 C26.5923077,20.3176593 25.3846154,22.0089926 23.3589744,22.1414963 C23.6570513,23.0575556 24.725641000000003,22.8173926 25.6916667,22.704 C27.827564099999996,25.5031407 33.0391026,24.8011259 35.1282051,23.5060296 C38.5852564,25.7585926 39.7942308,29.3718667 41.8275641,32.4857037 C41.2346154,35.7619852 42.452564100000004,38.7025481 41.0198718,41.864163 C39.5692308,39.5810222 38.0211538,35.6479556 34.85,33.7489481 C33.6275641,39.559363 36.0980769,43.1331407 39.7673077,45.9806963 C38.3987179,50.121437 36.6326923,53.6162222 34.3089744,56.2000444 C34.9852564,52.7313778 33.6461538,50.276237 32.6769231,47.7070667 C31.642307700000003,44.960163 31.135897399999998,41.3978519 28.4935897,40.5614222 C25.6525641,42.3056296 27.824359,47.1464741 30.181410300000003,48.8231556 C30.8397436,49.2907407 31.8429487,49.2856444 32.400641,49.8494222 C33.8826923,51.3451852 33.5955128,56.279037 32.7532051,58.5245926 C31.9,60.7988148 27.8378205,64.5439556 25.8801282,66.4410519 C23.350641000000003,68.8917333 20.6205128,71.2640593 18.1807692,72.6846519 C19.9583333,67.8762963 19.0275641,61.2179852 22.912820500000002,58.3615111 C25.8679487,59.0412296 29.123717900000003,54.3711111 28.5628205,50.396637 C25.016666700000002,50.8801481 24.237179499999996,55.8757926 21.746794899999998,58.0805778 C21.6339744,53.9283704 21.1525641,48.9658519 17.945512800000003,47.3458667 C15.802564099999998,51.6554222 17.478205099999997,56.7638222 20.473717899999997,59.2463556 C20.3108974,60.6000593 19.5897436,61.0459852 19.271794900000003,62.1474222 C17.6596154,59.2635556 16.3121795,56.9791407 14.339102599999997,56.0484296 C8.815384600000002,53.4429481 2.026282100000003,56.7300593 1.3455127999999945,62.7334963 C1.022435900000005,65.5791407 2.483974399999994,69.8294519 4.602564099999995,70.6378519 C9.1205128,72.3591259 15.022435899999998,65.7364889 8.582692300000005,65.4606519 C8.567948700000002,66.5232296 10.375,66.4818222 10.285897399999996,67.5896296 C9.401923100000005,69.3287407 6.739743599999997,70.2053037 4.885256400000003,69.4771704 C3.332692300000005,68.869437 1.965384599999993,65.2052 2.2205127999999945,63.1896148 C3.0467948999999948,56.6797333 11.698076899999997,54.3844889 16.049359000000003,59.1609926 C17.1019231,60.3178519 18.0064103,61.9690519 18.232692299999997,63.3698963 C18.438461500000003,64.6471556 17.775641,65.892563 17.7365385,67.4227259 C17.714102599999997,68.334963 18.119230799999997,69.7676593 17.473717899999997,71.5316148 C14.817948700000002,78.792563 4.699359000000001,79.8462222 0.2794872000000055,85.3037185 C3.0217949000000033,85.3750667 4.614743599999997,83.3569333 6.7205127999999945,82.1930667 C9.767948700000005,80.5106519 12.663461499999997,78.9186963 15.882692300000002,77.039437 C18.0371795,75.7806519 20.1570513,73.788 23.785897400000003,75.0174815 C26.485256399999997,75.9322667 29.061538499999997,79.206 32.2467949,77.7936889 C33.8839744,77.0674667 36.0532051,74.7410074 33.5557692,73.4459111 C30.5185897,71.8698815 27.141666700000002,73.3828444 25.0019231,74.0829481 C23.302564099999998,73.0541333 21.641666700000002,73.9829333 19.8775641,73.8287704 C20.121794899999998,72.6782815 21.5346154,71.8921778 22.5365385,71.0340889 C25.0051282,68.9178519 28.480128200000003,65.446 32.8076923,66.3932741 C34.8615385,66.8423852 36.8198718,68.9121185 39.175641,69.6466222 C42.2384615,70.6021778 44.9051282,70.4919704 47.0230769,67.8565481 C43.355128199999996,65.7785333 38.4121795,63.5234222 34.9564103,65.6836148 C32.7057692,64.2955111 30.5762821,65.584237 28.552564099999998,65.6116296 C30.788461499999997,62.8844741 33.0948718,60.2726222 35.2480769,57.4085037 C38.6961538,59.7591704 44.3871795,59.1788296 46.417307699999995,56.174563 C43.2262821,56.2771259 40.2217949,54.2882963 37.4403846,54.5004296 C39.875,49.6175407 41.5115385,46.2444296 44.4057692,43.171363 C48.3269231,39.0070519 53.9185897,36.8462222 59.0467949,38.8471556 C64.5358974,40.9901481 69.11410256,49.6449333 63.3544872,55.5954963 C62.1064103,56.8854963 58.415384599999996,59.0577926 54.574359,57.1594222 C50.7660256,55.2776148 51.026923100000005,47.4108444 56.6826923,50.550163 C57.2762821,51.6433185 55.3935897,51.9905037 56.4057692,52.6925185 C57.533333299999995,53.2811407 58.0532051,51.9758519 58.144871800000004,51.6388593 C58.7961538,49.2633481 54.0544872,47.7988 52.419871799999996,48.7855704 C48.0346154,51.4343704 52.1307692,58.0595556 55.8673077,58.9444 C60.2955128,59.9936 64.7147436,57.2887407 66.30961538,53.6079407 C69.01217949,47.3675259 66.00897436,41.0474815 59.7961538,37.8005037 C62.8352564,35.6141926 65.43974359,39.6784889 67.73205128000001,40.6964741 C70.50384615,41.9265926 73.52884615,41.5743111 75,39.2580444 C73.39294872,38.4592 72.47051282,37.5176593 71.08461538,37.0863852 C68.81153846,36.378637 67.06987179,37.4138222 64.8564103,37.3023407 C62.866666699999996,37.202963 61.0217949,35.8696444 59.089102600000004,36.6481037 C60.403846200000004,32.723955600000004 66.91153846,32.7405185 65.36089744,26.1331704 C62.3967949,27.0250222 58.223076899999995,30.2560741 59.8314103,34.6185037 C57.4653846,37.6431556 52.0166667,36.686963 48.5064103,38.5146222 C46.028846200000004,39.8046222 44.5205128,41.9253185 42.199359,44.1122667 C41.6314103,42.9808889 42.5038462,42.1546519 42.7025641,41.0417481 C43.1326923,38.6343852 42.3846154,36.7990815 43.4673077,33.8636148 C44.3794872,31.39 47.4096154,27.9366222 49.3,27.1696296 C50.3839744,26.7307111 51.4634615,27.2537185 52.3826923,26.6861185 C54.4512821,25.4063111 54.6346154,21.6012889 55.0070513,18.9728741 C52.0987179,19.6035407 49.397435900000005,21.2152444 48.290384599999996,24.2258815 C48.031410300000005,24.9310815 48.221153799999996,26.1331704 47.900641,26.832637 C46.796794899999995,29.239363 43.7173077,30.4471852 42.8173077,32.4799704 C41.975641,27.3919556 41.1807692,22.2771852 39.2224359,17.8657037 C44.0660256,13.158637 43.5544872,3.9381629599999997 38.6397436,1.03518519 L38.6397436,1.03518519 zM34.7583333,3.78145185 C34.4532051,3.55657778 34.85,3.50625185 34.7583333,3.78145185 C36.6987179,4.90900741 36.6115385,7.26668148 39.1532051,8.03176296 C39.524359,6.16142222 38.7307692,4.99628148 39.1198718,3.11447407 C40.6134615,4.56437037 42.0839744,7.33739259 41.8467949,10.1537333 C41.5621795,13.5211111 39.6576923,17.5892296 36.6570513,17.2471407 C33.4737179,16.8859407 28.420512799999997,13.3567556 27.531410299999997,11.1201185 C27.066025600000003,9.94733333 27.2711538,8.32225185 27.6179487,6.72265185 C29.0487179,7.24183704 29.9115385,9.14785185 31.533333300000002,8.89431111 C30.913461499999997,7.01505185 29.3698718,4.69687407 30.382692300000002,2.47998519 C32.3653846,3.7158370400000003 33.0019231,5.76645926 34.6653846,7.1946963 C35.275641,5.7053037 34.525641,5.04151111 34.7583333,3.78145185 L34.7583333,3.78145185 zM49.0032051,26.3618667 C49.6185897,22.7192889 51.6108974,21.3216296 53.910897399999996,20.4272296 C53.9910256,23.9309333 52.2711538,27.2409778 49.0032051,26.3618667 L49.0032051,26.3618667 zM60.4615385,33.0513926 C60.1737179,29.7419852 63.0852564,28.9284889 64.7320513,27.7002815 C64.7435897,30.5612148 62.449359,32.3805926 60.4615385,33.0513926 L60.4615385,33.0513926 zM33.0852564,22.768977800000002 C32.2134615,24.2985037 28.073076899999997,23.8392 26.737820499999998,22.4644741 C26.954487200000003,20.8674222 31.545512799999997,21.2655704 33.0852564,22.768977800000002 L33.0852564,22.768977800000002 zM72.90769231,39.735185200000004 C71.11987179,40.0244 67.47115385000001,40.2123259 66.9,38.0413037 C68.44358974,37.2265333 72.37179487,37.8992444 72.90769231,39.735185200000004 L72.90769231,39.735185200000004 zM40.050641,44.8206519 C36.9217949,42.8324593 35.2647436,39.9498667 35.5641026,35.8849333 C38.650641,37.8998815 39.9916667,40.9723111 40.050641,44.8206519 L40.050641,44.8206519 zM31.751282099999997,48.4651407 C29.454487200000003,47.0248 27.647435899999998,45.288237 28.387179500000002,42.0087704 C30.3935897,42.8509333 31.816025600000003,45.7150519 31.751282099999997,48.4651407 L31.751282099999997,48.4651407 zM20.693589699999997,57.3358815 C17.875,56.4625037 17.519871799999997,52.4185926 18.0737179,48.848637 C20.663461499999997,49.880637 20.5717949,54.1596148 20.693589699999997,57.3358815 L20.693589699999997,57.3358815 zM24.2429487,56.9638519 C24.8794872,54.6539556 25.9070513,52.9810963 27.586538500000003,52.3701778 C26.8442308,54.507437 26.401923099999998,57.1358519 24.2429487,56.9638519 L24.2429487,56.9638519 zM43.9788462,57.0594074 C41.6794872,57.6843407 37.8397436,58.5589926 35.7083333,56.5383111 C37.3044872,54.5055259 41.9846154,55.9216593 43.9788462,57.0594074 L43.9788462,57.0594074 zM44.6974359,68.2782667 C42.624359,69.814163 37.9230769,68.3496148 35.9532051,66.6608296 C38.1166667,64.6471556 42.85,66.2435704 44.6974359,68.2782667 L44.6974359,68.2782667 zM33.1596154,75.0690815 C32.2333333,77.7624741 27.2711538,76.7292 26.1115385,74.597037 C27.9788462,74.4014667 31.7480769,72.8496444 33.1596154,75.0690815 L33.1596154,75.0690815 z" id="rose-right" fill="#367d90" sketch:type="MSShapeGroup" fill-opacity="1"/>
    </g></g></svg>